#N canvas 233 80 750 530 10;
#X obj 288 170 ctlin 1;
#X obj 249 396 print;
#X obj 284 224 change;
#X floatatom 284 251 5 0 0 0 - - -, f 5;
#X obj 362 223 change;
#X floatatom 362 250 5 0 0 0 - - -, f 5;
#X obj 453 214 change;
#X floatatom 453 241 5 0 0 0 - - -, f 5;
#X obj 366 169 ctlin 2;
#X obj 457 160 ctlin 3;
#X obj 290 328 pack f f f;
#X connect 0 0 2 0;
#X connect 2 0 3 0;
#X connect 3 0 10 0;
#X connect 4 0 5 0;
#X connect 5 0 10 1;
#X connect 6 0 7 0;
#X connect 7 0 10 2;
#X connect 8 0 4 0;
#X connect 9 0 6 0;
#X connect 10 0 1 0;
