#N canvas 391 34 573 398 10;
#X text 68 4 IDE URL http://192.168.7.2;
#X obj 73 220 dac~ 1 2;
#X obj 74 168 readsf~;
#X msg 74 136 open ./sound.aiff \, 1;
#X obj 231 179 bng 15 250 50 0 empty empty empty 17 7 0 10 -262144
-1 -1;
#X obj 74 91 loadbang;
#X text 270 178 this creates the loop;
#X text 269 197 readsf~ is good for large files;
#X connect 2 0 1 0;
#X connect 2 0 1 1;
#X connect 2 1 4 0;
#X connect 3 0 2 0;
#X connect 4 0 3 0;
#X connect 5 0 3 0;
