#N canvas 209 23 849 419 10;
#X text 68 4 IDE URL http://192.168.7.2;
#X obj 117 350 dac~ 1 2;
#X obj 74 168 readsf~;
#X obj 231 179 bng 15 250 50 0 empty empty empty 17 7 0 10 -262144
-1 -1;
#X obj 74 83 loadbang;
#X text 679 132 this creates the loop;
#X text 678 151 readsf~ is good for large files;
#X msg 74 136 open ./counting.aiff \, 1;
#X obj 280 168 readsf~;
#X obj 437 179 bng 15 250 50 0 empty empty empty 17 7 0 10 -262144
-1 -1;
#X obj 280 83 loadbang;
#X obj 521 168 readsf~;
#X obj 678 179 bng 15 250 50 0 empty empty empty 17 7 0 10 -262144
-1 -1;
#X obj 521 83 loadbang;
#X msg 280 136 open ./alarmclock.wav \, 1;
#X msg 521 136 open ./glass.aiff \, 1;
#X obj 77 254 *~ 0.5;
#X obj 272 244 *~ 0.5;
#X obj 504 242 *~ 0.5;
#X connect 2 0 16 0;
#X connect 2 1 3 0;
#X connect 3 0 7 0;
#X connect 4 0 7 0;
#X connect 7 0 2 0;
#X connect 8 0 17 0;
#X connect 8 1 9 0;
#X connect 9 0 14 0;
#X connect 10 0 14 0;
#X connect 11 0 18 0;
#X connect 11 1 12 0;
#X connect 12 0 15 0;
#X connect 13 0 15 0;
#X connect 14 0 8 0;
#X connect 15 0 11 0;
#X connect 16 0 1 0;
#X connect 17 0 1 1;
#X connect 18 0 1 0;
#X connect 18 0 1 1;
