#N canvas 130 41 567 572 10;
#X text 68 4 IDE URL http://192.168.7.2;
#X obj 67 57 adc~ 3 4, f 11;
#X obj 67 97 *~ 2000;
#X obj 67 133 +~ 200;
#X obj 67 181 osc~ 200;
#X obj 67 301 dac~ 1 2;
#X obj 67 248 *~, f 11;
#X connect 1 0 2 0;
#X connect 1 1 6 1;
#X connect 2 0 3 0;
#X connect 3 0 4 0;
#X connect 4 0 6 0;
#X connect 6 0 5 0;
#X connect 6 0 5 1;
