#N canvas 247 99 1197 760 10;
#X text 139 4 IDE URL http://192.168.7.2;
#X obj 67 437 table soundfileplay3;
#X obj 436 125 soundfiler;
#X obj 436 49 loadbang;
#X floatatom 436 171 15 0 0 0 - - -, f 15;
#X obj 318 397 *~;
#X obj 290 314 phasor~ 0.15;
#X obj 318 434 tabread4~ soundfileplay3;
#X msg 436 99 read -resize ./counting.aiff soundfileplay3;
#X obj 319 545 *~ 0.5, f 11;
#X obj 353 690 dac~;
#X obj 235 107 tgl 15 0 empty empty empty 17 7 0 10 -262144 -1 -1 0
1;
#X floatatom 225 139 5 0 0 0 - - -, f 5;
#X obj 223 177 select 1;
#X obj 214 209 bng 15 250 50 0 empty empty empty 17 7 0 10 -262144
-1 -1;
#X obj 257 207 bng 15 250 50 0 empty empty empty 17 7 0 10 -262144
-1 -1;
#X floatatom 288 290 5 0 0 0 - - -, f 5;
#X msg 212 237 0.15;
#X msg 269 242 0.05;
#X text 261 105 relay;
#X connect 2 0 4 0;
#X connect 3 0 8 0;
#X connect 4 0 5 1;
#X connect 5 0 7 0;
#X connect 6 0 5 0;
#X connect 7 0 9 0;
#X connect 8 0 2 0;
#X connect 9 0 10 0;
#X connect 9 0 10 1;
#X connect 11 0 12 0;
#X connect 12 0 13 0;
#X connect 13 0 14 0;
#X connect 13 1 15 0;
#X connect 14 0 17 0;
#X connect 15 0 18 0;
#X connect 16 0 6 0;
#X connect 17 0 16 0;
#X connect 18 0 16 0;
