#N canvas 528 165 1197 760 10;
#X text 139 4 IDE URL http://192.168.7.2;
#X obj 207 505 dac~ 1 2;
#X obj 335 138 soundfiler;
#X obj 335 62 loadbang;
#X floatatom 335 184 15 0 0 0 - - -, f 15;
#X obj 206 325 *~;
#X obj 178 242 phasor~ 0.15;
#X obj 83 51 adc~ 3 4;
#X obj 66 415 table soundfileplay2;
#X obj 67 437 table soundfileplay3;
#X obj 66 394 table soundfileplay1;
#X msg 335 113 read -resize ./alarmclock.wav soundfileplay1;
#X obj 206 362 tabread4~ soundfileplay1;
#X obj 618 137 soundfiler;
#X obj 618 61 loadbang;
#X floatatom 618 183 15 0 0 0 - - -, f 15;
#X obj 489 324 *~;
#X obj 461 241 phasor~ 0.15;
#X obj 901 137 soundfiler;
#X obj 901 61 loadbang;
#X floatatom 901 183 15 0 0 0 - - -, f 15;
#X obj 772 324 *~;
#X obj 744 241 phasor~ 0.15;
#X obj 489 361 tabread4~ soundfileplay2;
#X obj 772 361 tabread4~ soundfileplay3;
#X msg 618 112 read -resize ./glass.aiff soundfileplay2;
#X msg 901 111 read -resize ./counting.aiff soundfileplay3;
#X obj 773 472 *~ 0.5, f 11;
#X obj 490 472 *~ 0.5, f 11;
#X obj 207 472 *~ 0.5, f 11;
#X connect 2 0 4 0;
#X connect 3 0 11 0;
#X connect 4 0 5 1;
#X connect 5 0 12 0;
#X connect 6 0 5 0;
#X connect 11 0 2 0;
#X connect 12 0 29 0;
#X connect 13 0 15 0;
#X connect 14 0 25 0;
#X connect 15 0 16 1;
#X connect 16 0 23 0;
#X connect 17 0 16 0;
#X connect 18 0 20 0;
#X connect 19 0 26 0;
#X connect 20 0 21 1;
#X connect 21 0 24 0;
#X connect 22 0 21 0;
#X connect 23 0 28 0;
#X connect 24 0 27 0;
#X connect 25 0 13 0;
#X connect 26 0 18 0;
#X connect 27 0 1 0;
#X connect 27 0 1 1;
#X connect 28 0 1 1;
#X connect 29 0 1 0;
