#N canvas 557 119 289 253 10;
#X obj 61 38 notein;
#X obj 61 87 / 60;
#X obj 61 117 sig~;
#X obj 96 119 sig~;
#X obj 96 86 / 127;
#X obj 61 156 dac~ 4 5 6;
#X obj 136 119 sig~;
#X obj 136 86 > 0;
#X text 59 183 note | velocity | gate;
#X text 59 197 (analog pins 1 \, 2 \, 3);
#X connect 0 0 1 0;
#X connect 0 0 1 0;
#X connect 0 1 4 0;
#X connect 0 1 7 0;
#X connect 1 0 2 0;
#X connect 2 0 5 0;
#X connect 3 0 5 1;
#X connect 4 0 3 0;
#X connect 6 0 5 2;
#X connect 7 0 6 0;
