#N canvas 391 34 567 572 10;
#X text 68 4 IDE URL http://192.168.7.2;
#X obj 67 395 dac~ 1 2;
#X obj 67 60 adc~ 3 4 5, f 11;
#X obj 265 271 table scrubber;
#X obj 67 270 tabread4~ scrubber;
#X obj 264 138 soundfiler;
#X obj 264 62 loadbang;
#X msg 264 113 read -resize ./sound.aiff scrubber;
#X floatatom 264 184 15 0 0 0 - - -, f 15;
#X obj 67 217 *~;
#X obj 38 162 phasor~;
#X obj 67 341 *~, f 11;
#X obj 38 124 *~;
#X obj 161 107 -~ 0.5;
#X obj 161 131 *~ 2;
#X connect 2 0 12 0;
#X connect 2 1 11 1;
#X connect 2 2 13 0;
#X connect 4 0 11 0;
#X connect 5 0 8 0;
#X connect 6 0 7 0;
#X connect 7 0 5 0;
#X connect 8 0 9 1;
#X connect 9 0 4 0;
#X connect 10 0 9 0;
#X connect 11 0 1 0;
#X connect 11 0 1 1;
#X connect 12 0 10 0;
#X connect 13 0 14 0;
#X connect 14 0 12 1;
