#N canvas 638 84 1039 634 10;
#X obj 150 568 dac~ 1 2;
#X obj 498 399 table scrubber;
#X obj 299 377 tabread4~ scrubber;
#X obj 497 266 soundfiler;
#X obj 497 200 loadbang;
#X msg 497 241 read -resize ./sound.aiff scrubber;
#X floatatom 485 317 15 0 0 0 - - -, f 15;
#X obj 300 345 *~;
#X obj 299 303 phasor~;
#X floatatom 298 252 5 0 0 0 - - -, f 5;
#X obj 164 371 tabread4~ scrubber;
#X obj 165 339 *~;
#X obj 164 297 phasor~;
#X obj 33 367 tabread4~ scrubber;
#X obj 34 335 *~;
#X obj 33 293 phasor~;
#X obj 63 472 *~;
#X obj 129 474 *~;
#X obj 271 470 *~;
#X floatatom 166 251 5 0 0 0 - - -, f 5;
#X floatatom 44 244 5 0 0 0 - - -, f 5;
#X floatatom 63 131 5 0 0 0 - - -, f 5;
#X floatatom 108 131 5 0 0 0 - - -, f 5;
#X obj 114 175 / 127;
#X connect 2 0 18 0;
#X connect 3 0 6 0;
#X connect 4 0 5 0;
#X connect 5 0 3 0;
#X connect 6 0 7 1;
#X connect 6 0 11 1;
#X connect 6 0 14 1;
#X connect 7 0 2 0;
#X connect 8 0 7 0;
#X connect 9 0 8 0;
#X connect 10 0 17 0;
#X connect 11 0 10 0;
#X connect 12 0 11 0;
#X connect 13 0 16 0;
#X connect 14 0 13 0;
#X connect 15 0 14 0;
#X connect 16 0 0 0;
#X connect 17 0 0 0;
#X connect 18 0 0 0;
#X connect 19 0 12 0;
#X connect 20 0 15 0;
#X connect 22 0 23 0;
#X connect 23 0 16 1;
