#N canvas 181 39 1113 829 10;
#X obj 119 76 table scrubber;
#X obj 51 76 soundfiler;
#X obj 51 12 loadbang;
#X floatatom 51 105 15 0 0 0 - - -, f 15;
#X obj 342 542 tabread4~ scrubber;
#X obj 342 510 *~;
#X obj 342 478 phasor~;
#X obj 342 626 *~;
#X floatatom 342 446 5 0 0 0 - - -, f 5;
#X obj 398 234 / 127;
#X obj 341 18 notein;
#X floatatom 341 50 5 0 0 0 - - -, f 5;
#X floatatom 386 51 5 0 0 0 - - -, f 5;
#X obj 341 79 poly 4 1;
#X obj 341 111 pack f f f;
#X obj 341 143 route 1 2 3 4, f 64;
#X obj 341 175 unpack f f;
#X floatatom 398 206 5 0 0 0 - - -, f 5;
#X obj 436 174 unpack f f;
#X floatatom 493 205 5 0 0 0 - - -, f 5;
#X obj 531 173 unpack f f;
#X floatatom 588 204 5 0 0 0 - - -, f 5;
#X obj 626 172 unpack f f;
#X floatatom 692 203 5 0 0 0 - - -, f 5;
#X msg 51 44 read -resize ./cello-f2.aif scrubber;
#X obj 51 143 expr 44100 / $f1;
#X floatatom 51 172 5 0 0 0 - - -, f 5;
#X text 153 104 number of samples in file;
#X obj 493 233 / 127;
#X obj 588 232 / 127;
#X obj 692 231 / 127;
#X obj 341 204 mtof;
#X obj 436 205 mtof;
#X obj 626 202 mtof;
#X obj 357 599 line~;
#X msg 357 572 \$1 20;
#X obj 401 763 dac~ 1 2;
#X obj 531 204 mtof;
#X floatatom 626 263 10 0 0 0 - - -, f 10;
#X floatatom 531 264 10 0 0 0 - - -, f 10;
#X floatatom 436 265 10 0 0 0 - - -, f 10;
#X floatatom 341 265 10 0 0 0 - - -, f 10;
#X floatatom 342 407 5 0 0 0 - - -, f 5;
#X obj 342 375 / 378;
#X obj 51 221 expr 261.626 / $f1;
#X floatatom 51 252 5 0 0 0 - - -, f 5;
#X text 173 222 adjust for middle C;
#X obj 460 541 tabread4~ scrubber;
#X obj 460 509 *~;
#X obj 460 477 phasor~;
#X obj 460 625 *~;
#X floatatom 460 445 5 0 0 0 - - -, f 5;
#X obj 475 598 line~;
#X msg 475 571 \$1 20;
#X floatatom 460 407 5 0 0 0 - - -, f 5;
#X obj 460 375 / 378;
#X obj 578 540 tabread4~ scrubber;
#X obj 578 508 *~;
#X obj 578 476 phasor~;
#X obj 578 624 *~;
#X floatatom 578 444 5 0 0 0 - - -, f 5;
#X obj 593 597 line~;
#X msg 593 570 \$1 20;
#X floatatom 578 406 5 0 0 0 - - -, f 5;
#X obj 578 374 / 378;
#X obj 696 539 tabread4~ scrubber;
#X obj 696 507 *~;
#X obj 696 475 phasor~;
#X obj 696 623 *~;
#X floatatom 696 443 5 0 0 0 - - -, f 5;
#X obj 711 596 line~;
#X msg 711 569 \$1 20;
#X floatatom 696 407 5 0 0 0 - - -, f 5;
#X obj 696 375 / 378;
#X obj 408 683 +~;
#X text 88 170 get correct speed for phasor;
#X text 599 59 rough sketch for a polyphonic sample player;
#X connect 1 0 3 0;
#X connect 2 0 24 0;
#X connect 3 0 5 1;
#X connect 3 0 25 0;
#X connect 3 0 48 1;
#X connect 3 0 57 1;
#X connect 3 0 66 1;
#X connect 4 0 7 0;
#X connect 5 0 4 0;
#X connect 6 0 5 0;
#X connect 7 0 74 0;
#X connect 8 0 6 0;
#X connect 9 0 35 0;
#X connect 10 0 11 0;
#X connect 10 1 12 0;
#X connect 11 0 13 0;
#X connect 12 0 13 1;
#X connect 13 0 14 0;
#X connect 13 1 14 1;
#X connect 13 2 14 2;
#X connect 14 0 15 0;
#X connect 15 0 16 0;
#X connect 15 1 18 0;
#X connect 15 2 20 0;
#X connect 15 3 22 0;
#X connect 16 0 31 0;
#X connect 16 1 17 0;
#X connect 17 0 9 0;
#X connect 18 0 32 0;
#X connect 18 1 19 0;
#X connect 19 0 28 0;
#X connect 20 0 37 0;
#X connect 20 1 21 0;
#X connect 21 0 29 0;
#X connect 22 0 33 0;
#X connect 22 1 23 0;
#X connect 23 0 30 0;
#X connect 24 0 1 0;
#X connect 25 0 26 0;
#X connect 26 0 44 0;
#X connect 28 0 53 0;
#X connect 29 0 62 0;
#X connect 30 0 71 0;
#X connect 31 0 41 0;
#X connect 32 0 40 0;
#X connect 33 0 38 0;
#X connect 34 0 7 1;
#X connect 35 0 34 0;
#X connect 37 0 39 0;
#X connect 38 0 73 0;
#X connect 39 0 64 0;
#X connect 40 0 55 0;
#X connect 41 0 43 0;
#X connect 42 0 8 0;
#X connect 43 0 42 0;
#X connect 44 0 45 0;
#X connect 45 0 43 1;
#X connect 45 0 55 1;
#X connect 45 0 64 1;
#X connect 45 0 73 1;
#X connect 47 0 50 0;
#X connect 48 0 47 0;
#X connect 49 0 48 0;
#X connect 50 0 74 0;
#X connect 51 0 49 0;
#X connect 52 0 50 1;
#X connect 53 0 52 0;
#X connect 54 0 51 0;
#X connect 55 0 54 0;
#X connect 56 0 59 0;
#X connect 57 0 56 0;
#X connect 58 0 57 0;
#X connect 59 0 74 1;
#X connect 60 0 58 0;
#X connect 61 0 59 1;
#X connect 62 0 61 0;
#X connect 63 0 60 0;
#X connect 64 0 63 0;
#X connect 65 0 68 0;
#X connect 66 0 65 0;
#X connect 67 0 66 0;
#X connect 68 0 74 1;
#X connect 69 0 67 0;
#X connect 70 0 68 1;
#X connect 71 0 70 0;
#X connect 72 0 69 0;
#X connect 73 0 72 0;
#X connect 74 0 36 0;
#X connect 74 0 36 1;
