#N canvas 130 41 567 572 10;
#X text 68 4 IDE URL http://192.168.7.2;
#X obj 67 97 *~ 2000;
#X obj 67 133 +~ 200;
#X obj 67 275 osc~ 200;
#X obj 67 395 dac~ 1 2;
#X obj 67 342 *~, f 11;
#X obj 67 57 adc~ 3 4 5, f 11;
#X obj 67 245 +~;
#X obj 199 133 +~ 1;
#X obj 199 107 *~ 200;
#X text 188 217 adding frequency modulation with photocell;
#X obj 199 159 osc~ 1;
#X obj 199 184 *~ 2000;
#X connect 1 0 2 0;
#X connect 2 0 7 0;
#X connect 3 0 5 0;
#X connect 5 0 4 0;
#X connect 5 0 4 1;
#X connect 6 0 1 0;
#X connect 6 1 5 1;
#X connect 6 2 9 0;
#X connect 7 0 3 0;
#X connect 8 0 11 0;
#X connect 9 0 8 0;
#X connect 11 0 12 0;
#X connect 12 0 7 1;
